# xmcd
#
# Track frame offsets: 
#        150
#        25279
#        46302
#        94938
#        117291
#        131818
#        159524
#        180808
#        197943
#        209924
#        226342
#        294301
#
# Disc length: 4075 seconds
#
# Revision: 0
# Processed by: cddbd v1.5.2PL0 Copyright (c) Steve Scherf et al.
# Submitted via: ExactAudioCopy v0.99pb4
#
DISCID=ab0fe90c
DTITLE=Wilco - A Ghost Is Born
DYEAR=2004
DGENRE=Country
TTITLE0=At Least That's What You Said
TTITLE1=Hell Is Chrome
TTITLE2=Spiders (Kidsmoke)
TTITLE3=Muzzle Of Bees
TTITLE4=Hummingbird
TTITLE5=Handshake Drugs
TTITLE6=Wishful Thinking
TTITLE7=Company In My Back
TTITLE8=I'm A Wheel
TTITLE9=Theologians
TTITLE10=Less Than You Think
TTITLE11=The Late Greats
EXTD=
EXTT0=
EXTT1=
EXTT2=
EXTT3=
EXTT4=
EXTT5=
EXTT6=
EXTT7=
EXTT8=
EXTT9=
EXTT10=
EXTT11=
PLAYORDER=
